<?xml version="1.0" encoding="UTF-8"?><svg id="Layer_2" xmlns="http://www.w3.org/2000/svg" viewBox="0 0 526.59 90.45"><defs><style>.cls-1{fill:#fbb117;stroke-width:0px;}</style></defs><g id="Layer_1-2"><path class="cls-1" d="M107.6.2c-18.97,7.87-37.8,16.17-55.76,26.17-8.94,4.98-17.65,10.38-26.01,16.29-4.13,2.93-8.17,5.98-12.11,9.16-3.59,2.89-7.08,5.69-9.57,9.63-3.97,6.29-6.6,17.59-.78,23.61,2.49,2.58,6.09,3.58,9.5,4.23,4.97.94,10.13,1.05,15.18,1.13,22.61.35,45.44-2.7,67.73-6.13,45.55-7.01,91.16-13.64,136.74-20.45,11.18-1.67,22.36-3.31,33.55-4.86,11.49-1.59,23.19-3.72,34.78-4.25,2.68-.12,5.33-.46,8-.69s5.48-.05,8.12-.71c2.37-.6,4.45-1.41,6.9-1.64,3.06-.28,6.13-.58,9.19-.89,11.58-1.17,23.13-2.52,34.7-3.77s23.11-2.42,34.7-3.24,22.86-.95,34.33-1.12c23.24-.33,46.47-1.25,69.71-1.19,5.88.02,11.76.1,17.64.26,3.22.09,3.22-4.91,0-5-22.76-.62-45.53.04-68.29.56-11.17.26-22.33.36-33.5.48s-22.16,1.08-33.17,2.08c-22.4,2.03-44.79,4.58-67.16,6.97-2.24.24-4.23,1.16-6.39,1.68-2.48.6-5.25.39-7.79.63-5.56.52-11.11.88-16.66,1.56-11.01,1.35-22,2.82-32.98,4.38-44.05,6.23-88.01,13.16-132.02,19.65-10.92,1.61-21.85,3.22-32.76,4.9s-22.43,3.05-33.74,4.14-21.74,1.87-32.65,1.63c-4.82-.1-9.75-.19-14.47-1.26-3.6-.82-6.64-2.25-7.24-6.24-.67-4.4.36-9.1,2.55-12.95,2.36-4.14,6.07-6.94,9.73-9.88,7.72-6.2,15.88-11.86,24.3-17.07,16.96-10.52,34.97-19.21,53.25-27.15,4.57-1.98,9.16-3.92,13.76-5.83,2.93-1.22,1.64-6.06-1.33-4.82h0Z"/></g></svg>