<?xml version="1.0" encoding="UTF-8"?><svg id="Layer_2" xmlns="http://www.w3.org/2000/svg" viewBox="0 0 384.85 7.01"><defs><style>.cls-1{fill:none;stroke:#1d1d1b;stroke-miterlimit:10;}</style></defs><g id="Layer_1-2"><path class="cls-1" d="M0,.5c7.4,0,7.4,6.01,14.8,6.01S22.2.5,29.6.5s7.4,6.01,14.8,6.01S51.8.5,59.2.5s7.4,6.01,14.8,6.01,7.4-6.01,14.8-6.01,7.4,6.01,14.8,6.01,7.4-6.01,14.8-6.01,7.4,6.01,14.8,6.01,7.4-6.01,14.8-6.01,7.4,6.01,14.8,6.01,7.4-6.01,14.8-6.01,7.4,6.01,14.8,6.01,7.4-6.01,14.8-6.01,7.4,6.01,14.8,6.01,7.4-6.01,14.8-6.01,7.4,6.01,14.8,6.01,7.4-6.01,14.8-6.01,7.4,6.01,14.8,6.01,7.4-6.01,14.8-6.01,7.4,6.01,14.8,6.01,7.4-6.01,14.8-6.01,7.4,6.01,14.81,6.01,7.4-6.01,14.8-6.01,7.41,6.01,14.81,6.01,7.41-6.01,14.81-6.01"/></g></svg>